<svg width="112" height="15" viewBox="0 0 112 15" fill="none" xmlns="http://www.w3.org/2000/svg">
<path d="M7.7041 8.83496L0.786133 11.8838V9.89453L5.45508 8.02148V7.93262L0.786133 6.05273V4.07031L7.7041 7.1123V8.83496ZM15.1074 12V13.5859H8.49023V12H15.1074ZM21.9023 12.0205C21.1504 12.0205 20.5625 11.8542 20.1387 11.5215C19.7194 11.1888 19.5098 10.6579 19.5098 9.92871V6.42188H18.498V4.78125H19.5098V2.96289H21.6084V4.78125H22.9756V6.42188H21.6084V9.56641C21.6084 9.88997 21.6768 10.1042 21.8135 10.209C21.9502 10.3092 22.1439 10.3594 22.3945 10.3594C22.4993 10.3594 22.5996 10.3594 22.6953 10.3594C22.791 10.3548 22.8685 10.3503 22.9277 10.3457L23.0029 11.9863C22.766 12.0091 22.3991 12.0205 21.9023 12.0205ZM26.0586 7.76172V12H23.9668V1.9375H26.0039V5.90918H26.0518C26.2204 5.48079 26.4938 5.13672 26.8721 4.87695C27.2549 4.61263 27.7266 4.48047 28.2871 4.48047C28.8021 4.48047 29.2601 4.5944 29.6611 4.82227C30.0667 5.05013 30.3835 5.37598 30.6113 5.7998C30.8438 6.22363 30.9577 6.72949 30.9531 7.31738V12H28.8613V7.68652C28.8659 7.21257 28.7451 6.85026 28.499 6.59961C28.2575 6.3444 27.9225 6.2168 27.4941 6.2168C27.0885 6.2168 26.749 6.34668 26.4756 6.60645C26.2021 6.86165 26.0632 7.24674 26.0586 7.76172ZM35.4512 12.1094C34.7174 12.1094 34.0771 11.9567 33.5303 11.6514C32.988 11.346 32.5664 10.9154 32.2656 10.3594C31.9694 9.80339 31.8213 9.14941 31.8213 8.39746C31.8213 7.64551 31.9694 6.99154 32.2656 6.43555C32.5664 5.875 32.988 5.44206 33.5303 5.13672C34.0771 4.82682 34.7174 4.67188 35.4512 4.67188C36.1895 4.67188 36.8298 4.82682 37.3721 5.13672C37.9144 5.44206 38.3337 5.875 38.6299 6.43555C38.9307 6.99154 39.0811 7.64551 39.0811 8.39746C39.0811 9.14486 38.9307 9.79883 38.6299 10.3594C38.3337 10.9154 37.9144 11.346 37.3721 11.6514C36.8298 11.9567 36.1895 12.1094 35.4512 12.1094ZM35.4512 10.4824C35.8978 10.4824 36.2601 10.2979 36.5381 9.92871C36.8206 9.55501 36.9619 9.0446 36.9619 8.39746C36.9619 7.74577 36.8206 7.23307 36.5381 6.85938C36.2601 6.48112 35.8978 6.29199 35.4512 6.29199C34.9954 6.29199 34.6286 6.47884 34.3506 6.85254C34.0771 7.22624 33.9404 7.74121 33.9404 8.39746C33.945 9.0446 34.084 9.55501 34.3574 9.92871C34.6354 10.2979 35 10.4824 35.4512 10.4824ZM39.9492 12V4.78125H41.9727V6.10059H42C42.1595 5.66764 42.4284 5.32129 42.8066 5.06152C43.1895 4.80176 43.6361 4.67188 44.1465 4.67188C44.6706 4.67188 45.1195 4.80632 45.4932 5.0752C45.8714 5.33952 46.113 5.68587 46.2178 6.11426H46.2451C46.391 5.69499 46.6667 5.35091 47.0723 5.08203C47.4779 4.80859 47.9609 4.67188 48.5215 4.67188C49.2233 4.67188 49.8021 4.89518 50.2578 5.3418C50.7135 5.78841 50.9414 6.42188 50.9414 7.24219V12H48.8359V7.65234C48.8359 7.23307 48.7243 6.91862 48.501 6.70898C48.2777 6.49935 47.9974 6.39453 47.6602 6.39453C47.2865 6.39453 46.9902 6.5153 46.7715 6.75684C46.5573 6.99837 46.4502 7.3151 46.4502 7.70703V12H44.4336V7.60449C44.4336 7.23535 44.3265 6.94141 44.1123 6.72266C43.9027 6.50391 43.6247 6.39453 43.2783 6.39453C42.932 6.39453 42.6403 6.5153 42.4033 6.75684C42.1663 6.99837 42.0479 7.34245 42.0479 7.78906V12H39.9492ZM54.9131 12.123C54.3389 12.123 53.8193 11.9749 53.3545 11.6787C52.8942 11.3825 52.5296 10.945 52.2607 10.3662C51.9919 9.78743 51.8574 9.0765 51.8574 8.2334C51.8574 7.36751 51.9964 6.64974 52.2744 6.08008C52.5524 5.50586 52.9238 5.0752 53.3887 4.78809C53.8535 4.50098 54.3639 4.35742 54.9199 4.35742C55.3392 4.35742 55.6901 4.42806 55.9727 4.56934C56.2552 4.71061 56.4831 4.88607 56.6562 5.0957C56.834 5.30534 56.9684 5.51497 57.0596 5.72461H57.1211V4.45312H59.2129V12H57.1484V10.79H57.0596C56.9639 10.9997 56.8249 11.207 56.6426 11.4121C56.4648 11.6172 56.2347 11.7881 55.9521 11.9248C55.6696 12.057 55.3232 12.123 54.9131 12.123ZM55.5762 10.4551C56.0775 10.4551 56.4671 10.2523 56.7451 9.84668C57.0231 9.44108 57.1621 8.90104 57.1621 8.22656C57.1621 7.55208 57.0231 7.0166 56.7451 6.62012C56.4717 6.21908 56.082 6.01855 55.5762 6.01855C55.0612 6.01855 54.667 6.22363 54.3936 6.63379C54.1247 7.03939 53.9902 7.57031 53.9902 8.22656C53.9902 8.88737 54.127 9.42513 54.4004 9.83984C54.6738 10.25 55.0658 10.4551 55.5762 10.4551ZM66.4727 7.0918H64.5244C64.5199 6.80924 64.4059 6.58594 64.1826 6.42188C63.9593 6.25781 63.6836 6.17578 63.3555 6.17578C63.0547 6.17578 62.804 6.2373 62.6035 6.36035C62.403 6.47884 62.3027 6.63835 62.3027 6.83887C62.3027 7.17611 62.5876 7.40397 63.1572 7.52246L64.5107 7.78906C65.1807 7.92578 65.7025 8.14909 66.0762 8.45898C66.4544 8.76432 66.6436 9.19499 66.6436 9.75098C66.6436 10.2432 66.5046 10.667 66.2266 11.0225C65.9486 11.3734 65.568 11.6445 65.085 11.8359C64.6019 12.0228 64.0505 12.1162 63.4307 12.1162C62.4417 12.1162 61.6488 11.9043 61.0518 11.4805C60.4593 11.0521 60.1335 10.4596 60.0742 9.70312H62.1455C62.182 10.0085 62.3141 10.2363 62.542 10.3867C62.7699 10.5371 63.0684 10.6123 63.4375 10.6123C63.7611 10.6123 64.0231 10.5553 64.2236 10.4414C64.4287 10.3229 64.5312 10.1589 64.5312 9.94922C64.5312 9.75781 64.4469 9.61198 64.2783 9.51172C64.1143 9.41146 63.8955 9.33398 63.6221 9.2793L62.3848 9.04004C61.6602 8.89876 61.1201 8.64811 60.7646 8.28809C60.4137 7.92806 60.2383 7.47461 60.2383 6.92773C60.2383 6.22591 60.5163 5.67676 61.0723 5.28027C61.6328 4.87923 62.3802 4.67871 63.3145 4.67871C64.2578 4.67871 65.0143 4.8929 65.584 5.32129C66.1582 5.74512 66.4544 6.33529 66.4727 7.0918ZM70.6973 12V4.78125H72.7207V6.08691H72.7754C73.0579 5.14355 73.6322 4.67188 74.498 4.67188C74.612 4.67188 74.7214 4.67871 74.8262 4.69238C74.931 4.70605 75.0244 4.72428 75.1064 4.74707V6.60645C75.0062 6.56999 74.8717 6.54036 74.7031 6.51758C74.5345 6.49479 74.375 6.48568 74.2246 6.49023C73.8236 6.48568 73.484 6.62012 73.2061 6.89355C72.9281 7.16243 72.7891 7.54753 72.7891 8.04883V12H70.6973ZM78.7705 12.1094C78.0413 12.1094 77.4079 11.959 76.8701 11.6582C76.3369 11.3529 75.9245 10.9222 75.6328 10.3662C75.3457 9.81022 75.2021 9.15397 75.2021 8.39746C75.2021 7.65918 75.3457 7.01204 75.6328 6.45605C75.9245 5.89551 76.3346 5.45801 76.8633 5.14355C77.3919 4.8291 78.0117 4.67188 78.7227 4.67188C79.429 4.67188 80.0397 4.82682 80.5547 5.13672C81.0697 5.44206 81.4661 5.87272 81.7441 6.42871C82.0267 6.9847 82.168 7.63867 82.168 8.39062V8.87598H77.2256V8.93066C77.221 9.40007 77.3577 9.79655 77.6357 10.1201C77.9137 10.4391 78.2988 10.6009 78.791 10.6055C79.1328 10.6009 79.4336 10.5212 79.6934 10.3662C79.9577 10.2067 80.1331 9.99251 80.2197 9.72363H82.1064C81.9788 10.4437 81.6165 11.0225 81.0195 11.46C80.4271 11.8975 79.6774 12.1139 78.7705 12.1094ZM77.2256 7.625H80.2607C80.2471 7.19661 80.0967 6.85026 79.8096 6.58594C79.5225 6.31706 79.1693 6.18034 78.75 6.17578C78.3125 6.18034 77.9548 6.32389 77.6768 6.60645C77.3988 6.889 77.2484 7.22852 77.2256 7.625ZM86.0508 12.0205C85.2988 12.0205 84.7109 11.8542 84.2871 11.5215C83.8678 11.1888 83.6582 10.6579 83.6582 9.92871V6.42188H82.6465V4.78125H83.6582V2.96289H85.7568V4.78125H87.124V6.42188H85.7568V9.56641C85.7568 9.88997 85.8252 10.1042 85.9619 10.209C86.0986 10.3092 86.2923 10.3594 86.543 10.3594C86.6478 10.3594 86.748 10.3594 86.8438 10.3594C86.9395 10.3548 87.0169 10.3503 87.0762 10.3457L87.1514 11.9863C86.9144 12.0091 86.5475 12.0205 86.0508 12.0205ZM91.1367 12.0205C90.3848 12.0205 89.7969 11.8542 89.373 11.5215C88.9538 11.1888 88.7441 10.6579 88.7441 9.92871V6.42188H87.7324V4.78125H88.7441V2.96289H90.8428V4.78125H92.21V6.42188H90.8428V9.56641C90.8428 9.88997 90.9111 10.1042 91.0479 10.209C91.1846 10.3092 91.3783 10.3594 91.6289 10.3594C91.7337 10.3594 91.834 10.3594 91.9297 10.3594C92.0254 10.3548 92.1029 10.3503 92.1621 10.3457L92.2373 11.9863C92.0003 12.0091 91.6335 12.0205 91.1367 12.0205ZM93.2012 12V4.78125H95.2998V12H93.2012ZM94.2539 3.83789C93.9258 3.83789 93.6455 3.72852 93.4131 3.50977C93.1852 3.28646 93.0736 3.01986 93.0781 2.70996C93.0736 2.40007 93.1852 2.13574 93.4131 1.91699C93.6455 1.69368 93.9258 1.58203 94.2539 1.58203C94.5775 1.58203 94.8532 1.69368 95.0811 1.91699C95.3089 2.13574 95.4251 2.40007 95.4297 2.70996C95.4251 3.01986 95.3089 3.28646 95.0811 3.50977C94.8532 3.72852 94.5775 3.83789 94.2539 3.83789ZM99.8799 14.9531C98.8363 14.9531 98.0273 14.7412 97.4531 14.3174C96.8789 13.8936 96.5553 13.333 96.4824 12.6357H98.5127C98.5765 12.9092 98.7337 13.112 98.9844 13.2441C99.235 13.3763 99.5404 13.4424 99.9004 13.4424C100.361 13.4424 100.721 13.3262 100.98 13.0938C101.24 12.8659 101.37 12.5013 101.37 12V10.8516H101.343C101.179 11.2116 100.914 11.4964 100.55 11.7061C100.185 11.9157 99.7477 12.0205 99.2373 12.0205C98.3851 12.0205 97.6833 11.7129 97.1318 11.0977C96.585 10.4779 96.3115 9.57324 96.3115 8.38379C96.3115 7.56803 96.4437 6.88444 96.708 6.33301C96.9769 5.78158 97.3324 5.36686 97.7744 5.08887C98.221 4.81087 98.7087 4.67188 99.2373 4.67188C99.6383 4.67188 99.9756 4.74023 100.249 4.87695C100.527 5.00911 100.753 5.17546 100.926 5.37598C101.099 5.5765 101.231 5.77702 101.322 5.97754H101.356V4.78125H103.441V11.918C103.441 12.957 103.116 13.7227 102.464 14.2148C101.812 14.707 100.951 14.9531 99.8799 14.9531ZM99.8936 10.4072C100.358 10.4072 100.721 10.2318 100.98 9.88086C101.24 9.52539 101.37 9.02865 101.37 8.39062C101.37 7.74349 101.24 7.24219 100.98 6.88672C100.721 6.52669 100.363 6.34668 99.9072 6.34668C99.4378 6.34668 99.0778 6.53125 98.8271 6.90039C98.5765 7.26953 98.4512 7.76628 98.4512 8.39062C98.4512 9.01042 98.5742 9.5026 98.8203 9.86719C99.0664 10.2272 99.4242 10.4072 99.8936 10.4072Z" fill="black"/>
</svg>
